# Blender v3.1.2 OBJ File: 'motor_mount.blend'
# www.blender.org
mtllib motor_mount.mtl
o Cube
v -0.025000 0.003000 -0.025000
v -0.025000 -0.003000 -0.025000
v 0.025000 0.003000 -0.025000
v 0.025000 -0.003000 -0.025000
v -0.025000 0.003000 0.025000
v -0.025000 -0.003000 0.025000
v 0.025000 0.003000 0.025000
v 0.025000 -0.003000 0.025000
v -0.025000 0.003000 -0.025000
v -0.025000 -0.003000 -0.025000
v 0.025000 0.003000 -0.025000
v 0.025000 -0.003000 -0.025000
v -0.025000 -0.003000 -0.019000
v 0.025000 0.003000 -0.019000
v 0.025000 -0.003000 -0.019000
v -0.025000 0.003000 -0.019000
v -0.025000 -0.003000 0.019000
v 0.025000 0.003000 0.019000
v 0.025000 -0.003000 0.019000
v -0.025000 0.003000 0.019000
v -0.025000 -0.003000 0.025000
v 0.025000 -0.003000 0.025000
v -0.025000 -0.003000 0.019000
v 0.025000 -0.003000 -0.019000
v 0.025000 -0.003000 -0.025000
v -0.025000 -0.003000 -0.025000
v -0.025000 -0.003000 -0.019000
v 0.025000 -0.003000 0.019000
v -0.025000 -0.003000 0.025000
v 0.025000 -0.003000 0.025000
v -0.025000 -0.003000 0.019000
v 0.025000 -0.003000 -0.019000
v 0.025000 -0.003000 -0.025000
v -0.025000 -0.003000 -0.025000
v -0.025000 -0.003000 -0.019000
v 0.025000 -0.003000 0.019000
v -0.025000 -0.049500 0.025000
v 0.025000 -0.017000 0.025000
v -0.025000 -0.049500 0.019000
v 0.025000 -0.017000 -0.019000
v 0.024903 -0.017000 -0.025127
v -0.025000 -0.049500 -0.025000
v -0.025000 -0.049500 -0.019000
v 0.025000 -0.017000 0.019000
v -0.025000 -0.017000 -0.019000
v 0.025000 -0.017000 -0.019000
v 0.024952 -0.017000 -0.025064
v -0.025000 -0.017000 -0.025000
v -0.025000 -0.017000 0.025000
v 0.025000 -0.017000 0.025000
v 0.025000 -0.017000 0.019000
v -0.025000 -0.017000 0.019000
v -0.009997 -0.003000 0.025000
v -0.009997 0.003000 -0.025000
v -0.009997 0.003000 0.025000
v -0.009997 -0.003000 -0.025000
v -0.009997 0.003000 -0.025000
v -0.009997 -0.003000 -0.025000
v -0.009997 -0.003000 -0.019000
v -0.009997 0.003000 -0.019000
v -0.009997 -0.003000 0.019000
v -0.009997 0.003000 0.019000
v -0.009997 -0.003000 0.025000
v -0.009997 -0.003000 -0.025000
v -0.009997 -0.003000 -0.019000
v -0.009997 -0.003000 0.019000
v -0.009997 -0.003000 0.025000
v -0.009997 -0.003000 -0.025000
v -0.009997 -0.003000 -0.019000
v -0.009997 -0.003000 0.019000
v -0.009997 -0.049500 0.025000
v -0.010046 -0.049500 -0.025064
v -0.009997 -0.049500 -0.019000
v -0.009997 -0.049500 0.019000
v -0.010021 -0.017000 -0.025032
v -0.009997 -0.017000 -0.019000
v -0.009997 -0.017000 0.025000
v -0.009997 -0.017000 0.019000
v 0.025000 -0.017000 0.019000
v 0.025000 -0.017000 0.019000
v -0.009997 -0.049500 0.019000
v -0.009997 -0.017000 0.019000
v -0.009997 -0.049500 0.019000
v 0.025000 -0.017000 0.019000
v 0.025000 -0.017000 0.019000
v -0.009997 -0.017000 0.019000
v -0.014080 -0.045103 -0.019000
v 0.020917 -0.012603 -0.019000
v -0.014080 -0.045103 0.019000
v 0.020917 -0.012603 0.019000
v -0.009997 0.003000 -0.019000
v 0.025000 0.003000 -0.019000
v 0.025000 0.003000 0.019000
v -0.009997 0.003000 0.019000
vt 0.812500 0.625000
vt 0.875000 0.625000
vt 0.875000 0.750000
vt 0.812500 0.750000
vt 0.375000 0.937500
vt 0.625000 0.937500
vt 0.625000 1.000000
vt 0.375000 1.000000
vt 0.375000 0.125000
vt 0.625000 0.125000
vt 0.625000 0.250000
vt 0.375000 0.250000
vt 0.250000 0.625000
vt 0.250000 0.500000
vt 0.250000 0.500000
vt 0.250000 0.625000
vt 0.625000 0.625000
vt 0.625000 0.750000
vt 0.625000 0.750000
vt 0.625000 0.625000
vt 0.375000 0.375000
vt 0.625000 0.375000
vt 0.625000 0.500000
vt 0.375000 0.500000
vt 0.375000 0.625000
vt 0.375000 0.750000
vt 0.375000 0.750000
vt 0.625000 0.500000
vt 0.375000 0.500000
vt 0.375000 0.625000
vt 0.625000 0.875000
vt 0.375000 0.875000
vt 0.750000 0.625000
vt 0.750000 0.750000
vt 0.375000 0.500000
vt 0.375000 0.375000
vt 0.625000 0.312500
vt 0.375000 0.312500
vt 0.625000 0.875000
vt 0.625000 0.937500
vt 0.375000 0.500000
vt 0.375000 0.375000
vt 0.375000 0.937500
vt 0.375000 1.000000
vt 0.375000 1.000000
vt 0.375000 0.937500
vt 0.375000 0.312500
vt 0.375000 0.250000
vt 0.187500 0.625000
vt 0.187500 0.750000
vt 0.187500 0.750000
vt 0.187500 0.625000
vt 0.375000 0.875000
vt 0.375000 0.750000
vt 0.375000 0.125000
vt 0.375000 0.625000
vt 0.187500 0.750000
vt 0.187500 0.625000
vt 0.187500 0.625000
vt 0.187500 0.750000
vt 0.375000 0.125000
vt 0.375000 0.250000
vt 0.375000 0.250000
vt 0.375000 0.125000
vt 0.375000 0.875000
vt 0.375000 0.750000
vt 0.375000 0.250000
vt 0.375000 0.125000
vt 0.187500 0.750000
vt 0.187500 0.625000
vt 0.250000 0.500000
vt 0.250000 0.625000
vt 0.375000 0.625000
vt 0.375000 0.312500
vt 0.250000 0.625000
vt 0.375000 0.625000
vt 0.375000 0.750000
vt 0.250000 0.750000
vt 0.125000 0.625000
vt 0.125000 0.750000
vt 0.250000 0.625000
vt 0.250000 0.500000
vt 0.250000 0.500000
vt 0.375000 0.625000
vt 0.375000 0.750000
vt 0.375000 0.312500
vt 0.375000 0.312500
vt 0.375000 0.937500
vt 0.375000 1.000000
vt 0.375000 1.000000
vt 0.375000 0.937500
vt 0.375000 0.375000
vt 0.375000 0.500000
vt 0.375000 0.500000
vt 0.375000 0.375000
vt 0.375000 0.875000
vt 0.375000 0.875000
vt 0.187500 0.750000
vt 0.187500 0.625000
vt 0.187500 0.500000
vt 0.187500 0.500000
vt 0.375000 0.000000
vt 0.375000 0.000000
vt 0.250000 0.750000
vt 0.250000 0.750000
vt 0.125000 0.500000
vt 0.187500 0.500000
vt 0.250000 0.750000
vt 0.187500 0.500000
vt 0.375000 0.000000
vt 0.375000 0.000000
vt 0.375000 0.000000
vt 0.187500 0.500000
vt 0.750000 0.500000
vt 0.250000 0.750000
vt 0.625000 0.000000
vt 0.812500 0.500000
vt 0.875000 0.500000
vt 0.187500 0.625000
vt 0.187500 0.750000
vt 0.187500 0.750000
vt 0.187500 0.625000
vt 0.375000 0.937500
vt 0.375000 0.937500
vt 0.187500 0.750000
vt 0.187500 0.625000
vt 0.375000 0.937500
vt 0.375000 0.937500
vt 0.250000 0.750000
vt 0.250000 0.625000
vt 0.187500 0.750000
vt 0.187500 0.625000
vt 0.000000 0.000000
vt 0.000000 0.000000
vt 0.000000 0.000000
vt 0.000000 0.000000
vt 0.000000 0.000000
vt 0.000000 0.000000
vt 0.000000 0.000000
vt 0.000000 0.000000
vt 0.000000 0.000000
vt 0.000000 0.000000
vt 0.000000 0.000000
vt 0.000000 0.000000
vt 0.750000 0.625000
vt 0.750000 0.750000
vt 0.812500 0.750000
vt 0.812500 0.625000
vt 0.000000 0.000000
vt 0.000000 0.000000
vt 0.000000 0.000000
vt 0.000000 0.000000
vn 0.0000 1.0000 0.0000
vn 1.0000 0.0000 0.0000
vn 0.0000 0.0000 1.0000
vn -1.0000 0.0000 0.0000
vn -0.0000 0.0000 -1.0000
vn 0.6807 -0.7325 -0.0081
vn 0.6805 -0.7328 0.0000
vn -0.0027 0.0029 -1.0000
vn 0.0000 -1.0000 0.0000
vn 1.0000 -0.0017 -0.0040
vn -0.0005 0.0034 -1.0000
vn -0.0011 0.0011 -1.0000
vn -0.0032 0.0005 -1.0000
vn 0.7328 0.6805 -0.0000
vn -0.7328 -0.6805 0.0000
vn -0.6805 0.7328 0.0000
usemtl Material
s off
f 62/1/1 55/2/1 7/3/1 18/4/1
f 19/5/2 18/6/2 7/7/2 8/8/2
f 53/9/3 55/10/3 5/11/3 6/12/3
f 59/13/3 13/14/3 27/15/3 65/16/3
f 54/17/3 3/18/3 11/19/3 57/20/3
f 13/21/4 16/22/4 1/23/4 2/24/4
f 58/25/5 57/20/5 11/19/5 12/26/5
f 3/18/3 4/27/3 12/26/3 11/19/3
f 2/24/3 1/23/3 9/28/3 10/29/3
f 56/30/3 2/24/3 10/29/3 58/25/3
f 4/27/2 3/18/2 14/31/2 15/32/2
f 54/17/1 60/33/1 14/34/1 3/18/1
f 13/21/3 2/24/3 26/35/3 27/36/3
f 6/12/4 5/11/4 20/37/4 17/38/4
f 18/6/3 14/31/3 92/39/3 93/40/3
f 27/36/3 26/35/3 34/41/3 35/42/3
f 28/43/3 22/44/3 30/45/3 36/46/3
f 6/12/3 17/38/3 23/47/3 21/48/3
f 61/49/3 19/50/3 28/51/3 66/52/3
f 19/5/3 8/8/3 22/44/3 28/43/3
f 4/27/3 15/32/3 24/53/3 25/54/3
f 53/9/3 6/12/3 21/48/3 63/55/3
f 56/30/3 4/27/3 25/54/3 64/56/3
f 44/57/3 74/58/3 81/59/3 79/60/3
f 77/61/3 49/62/3 37/63/3 71/64/3
f 25/54/3 24/53/3 32/65/3 33/66/3
f 63/55/3 21/48/3 29/67/3 67/68/3
f 66/52/3 28/51/3 36/69/3 70/70/3
f 65/16/3 27/15/3 35/71/3 69/72/3
f 64/56/3 25/54/3 33/66/3 68/73/3
f 21/48/3 23/47/3 31/74/3 29/67/3
f 73/75/6 72/76/6 41/77/6 40/78/6
f 71/79/7 74/58/7 44/57/7 38/80/7
f 76/81/3 45/82/3 43/83/3 73/75/3
f 75/84/8 47/85/8 41/77/8 72/76/8
f 49/62/4 52/86/4 39/87/4 37/63/4
f 51/88/4 50/89/4 38/90/4 44/91/4
f 45/92/4 48/93/4 42/94/4 43/95/4
f 47/85/9 46/96/9 40/97/9 41/77/9
f 33/66/10 32/65/10 46/96/10 47/85/10
f 35/42/4 34/41/4 48/93/4 45/92/4
f 68/73/11 33/66/11 47/85/11 75/84/11
f 69/72/3 35/71/3 45/82/3 76/81/3
f 36/46/2 30/45/2 50/89/2 51/88/2
f 29/67/4 31/74/4 52/86/4 49/62/4
f 67/68/3 29/67/3 49/62/3 77/61/3
f 70/70/5 36/69/5 51/98/5 78/99/5
f 31/100/5 70/70/5 78/99/5 52/101/5
f 30/102/3 67/68/3 77/61/3 50/103/3
f 32/104/3 69/72/3 76/81/3 46/105/3
f 34/41/12 68/73/12 75/84/12 48/93/12
f 48/93/13 75/84/13 72/76/13 42/94/13
f 46/105/3 76/81/3 73/75/3 40/78/3
f 37/106/9 39/107/9 74/58/9 71/79/9
f 43/83/9 42/94/9 72/76/9 73/75/9
f 26/35/3 64/56/3 68/73/3 34/41/3
f 24/108/3 65/16/3 69/72/3 32/104/3
f 23/109/3 66/52/3 70/70/3 31/100/3
f 22/110/3 63/55/3 67/68/3 30/102/3
f 50/103/3 77/61/3 71/64/3 38/111/3
f 52/101/5 78/99/5 74/58/5 39/107/5
f 2/24/3 56/30/3 64/56/3 26/35/3
f 8/112/3 53/9/3 63/55/3 22/110/3
f 17/113/3 61/49/3 66/52/3 23/109/3
f 1/23/1 16/114/1 60/33/1 54/17/1
f 4/27/3 56/30/3 58/25/3 12/26/3
f 10/29/5 9/28/5 57/20/5 58/25/5
f 1/23/3 54/17/3 57/20/3 9/28/3
f 15/115/3 59/13/3 65/16/3 24/108/3
f 8/112/3 7/116/3 55/10/3 53/9/3
f 20/117/1 5/118/1 55/2/1 62/1/1
f 82/119/3 80/120/3 85/121/3 86/122/3
f 74/58/3 78/99/3 82/119/3 81/59/3
f 51/88/3 44/91/3 79/123/3 80/124/3
f 78/99/3 51/98/3 80/120/3 82/119/3
f 86/122/5 85/121/5 84/125/5 83/126/5
f 79/60/3 81/59/3 83/126/3 84/125/3
f 81/59/3 82/119/3 86/122/3 83/126/3
f 80/124/3 79/123/3 84/127/3 85/128/3
f 73/75/3 40/78/3 88/129/3 87/130/3
f 87/130/7 88/129/7 90/131/7 89/132/7
f 83/133/14 73/134/14 87/135/14 89/136/14
f 84/125/5 83/126/5 89/132/5 90/131/5
f 40/137/15 84/138/15 90/139/15 88/140/15
f 40/78/16 73/75/16 83/133/16 84/125/16
f 31/141/5 20/142/5 93/143/5 36/144/5
f 14/34/3 60/33/3 91/145/3 92/146/3
f 62/1/3 18/4/3 93/147/3 94/148/3
f 60/33/3 62/1/3 94/148/3 91/145/3
f 35/149/5 16/150/5 92/151/5 32/152/5
