# Blender v3.1.2 OBJ File: 'pillar.blend'
# www.blender.org
mtllib pillar.mtl
o pillar_Cube.002
v -0.011250 -0.081250 -0.003000
v -0.011250 0.081250 -0.003000
v 0.011250 -0.081250 -0.003000
v 0.011250 0.081250 -0.003000
v -0.011250 -0.081250 0.003000
v -0.011250 0.081250 0.003000
v 0.011250 -0.081250 0.003000
v 0.011250 0.081250 0.003000
v -0.001406 -0.081250 -0.003000
v -0.001406 0.081250 -0.003000
v -0.001406 -0.081250 0.003000
v -0.001406 0.081250 0.003000
v -0.001406 0.087250 0.003000
v -0.011250 0.087250 0.003000
v -0.011250 0.087250 -0.003000
v -0.001406 0.087250 -0.003000
v -0.001406 -0.087250 -0.003000
v -0.011250 -0.087250 -0.003000
v -0.011250 -0.087250 0.003000
v -0.001406 -0.087250 0.003000
vt 0.375000 0.109375
vt 0.625000 0.109375
vt 0.625000 0.250000
vt 0.375000 0.250000
vt 0.625000 0.500000
vt 0.375000 0.500000
vt 0.375000 0.640625
vt 0.625000 0.640625
vt 0.625000 0.750000
vt 0.375000 0.750000
vt 0.625000 1.000000
vt 0.375000 1.000000
vt 0.125000 0.640625
vt 0.375000 0.640625
vt 0.125000 0.640625
vt 0.625000 0.640625
vt 0.625000 0.750000
vt 0.875000 0.500000
vt 0.875000 0.640625
vt 0.125000 0.500000
vt 0.375000 0.000000
vt 0.625000 0.000000
vt 0.875000 0.640625
vt 0.875000 0.750000
vt 0.625000 0.000000
vt 0.625000 0.109375
vt 0.625000 1.000000
vt 0.375000 0.750000
vt 0.125000 0.750000
vt 0.375000 0.109375
vt 0.375000 0.000000
vt 0.375000 1.000000
vn 0.0000 0.0000 -1.0000
vn 1.0000 0.0000 0.0000
vn -0.0000 0.0000 1.0000
vn -1.0000 0.0000 0.0000
vn 0.0000 1.0000 -0.0000
vn 0.0000 -1.0000 -0.0000
usemtl None
s off
f 9/1/1 10/2/1 4/3/1 3/4/1
f 3/4/2 4/3/2 8/5/2 7/6/2
f 11/7/3 12/8/3 6/9/3 5/10/3
f 5/10/4 6/9/4 2/11/4 1/12/4
f 9/13/2 11/7/2 20/14/2 17/15/2
f 6/9/3 12/8/3 13/16/3 14/17/3
f 8/5/5 4/18/5 10/19/5 12/8/5
f 3/20/6 7/6/6 11/7/6 9/13/6
f 7/6/3 8/5/3 12/8/3 11/7/3
f 1/21/1 2/22/1 10/2/1 9/1/1
f 13/16/5 16/23/5 15/24/5 14/17/5
f 10/2/1 2/22/1 15/25/1 16/26/1
f 2/11/4 6/9/4 14/17/4 15/27/4
f 12/8/2 10/19/2 16/23/2 13/16/2
f 17/15/6 20/14/6 19/28/6 18/29/6
f 1/21/1 9/1/1 17/30/1 18/31/1
f 11/7/3 5/10/3 19/28/3 20/14/3
f 5/10/4 1/12/4 18/32/4 19/28/4
